<svg width="512" height="512" viewBox="0 0 512 512" fill="none" xmlns="http://www.w3.org/2000/svg">
  <defs>
    <linearGradient id="bg" x1="0" y1="0" x2="512" y2="512" gradientUnits="userSpaceOnUse">
      <stop stop-color="#4F46E5"/>
      <stop offset="0.55" stop-color="#7C3AED"/>
      <stop offset="1" stop-color="#A855F7"/>
    </linearGradient>
  </defs>
  <rect width="512" height="512" rx="112" fill="url(#bg)"/>
  <!-- baykuş gövdesi -->
  <ellipse cx="256" cy="300" rx="130" ry="120" fill="#F5F3FF"/>
  <!-- kulaklar -->
  <path d="M150 208 L176 140 L214 196 Z" fill="#F5F3FF"/>
  <path d="M362 208 L336 140 L298 196 Z" fill="#F5F3FF"/>
  <!-- gözler -->
  <circle cx="206" cy="270" r="46" fill="#FFFFFF" stroke="#1E1B4B" stroke-width="10"/>
  <circle cx="306" cy="270" r="46" fill="#FFFFFF" stroke="#1E1B4B" stroke-width="10"/>
  <circle cx="212" cy="276" r="18" fill="#1E1B4B"/>
  <circle cx="300" cy="276" r="18" fill="#1E1B4B"/>
  <!-- gaga -->
  <path d="M256 306 L236 330 L256 352 L276 330 Z" fill="#F59E0B"/>
  <!-- karın -->
  <path d="M200 370 Q256 410 312 370 Q300 402 256 406 Q212 402 200 370 Z" fill="#C7D2FE"/>
  <!-- konuşma balonu: ABC -->
  <rect x="296" y="76" width="150" height="92" rx="34" fill="#FBBF24"/>
  <path d="M330 164 L318 194 L358 168 Z" fill="#FBBF24"/>
  <text x="371" y="139" text-anchor="middle" font-family="Arial, sans-serif" font-size="52" font-weight="900" fill="#1E1B4B">ABC</text>
</svg>
